<svg width="41" height="55" viewBox="0 0 41 55" fill="none" xmlns="http://www.w3.org/2000/svg">
<path d="M4.08123 52V43.2727H5.13805V47.1591H9.79146V43.2727H10.8483V52H9.79146V48.0966H5.13805V52H4.08123ZM15.4868 52.1364C14.8959 52.1364 14.3774 51.9957 13.9314 51.7145C13.4882 51.4332 13.1416 51.0398 12.8916 50.5341C12.6444 50.0284 12.5209 49.4375 12.5209 48.7614C12.5209 48.0795 12.6444 47.4844 12.8916 46.9759C13.1416 46.4673 13.4882 46.0724 13.9314 45.7912C14.3774 45.5099 14.8959 45.3693 15.4868 45.3693C16.0777 45.3693 16.5947 45.5099 17.0379 45.7912C17.4839 46.0724 17.8305 46.4673 18.0777 46.9759C18.3277 47.4844 18.4527 48.0795 18.4527 48.7614C18.4527 49.4375 18.3277 50.0284 18.0777 50.5341C17.8305 51.0398 17.4839 51.4332 17.0379 51.7145C16.5947 51.9957 16.0777 52.1364 15.4868 52.1364ZM15.4868 51.233C15.9356 51.233 16.305 51.1179 16.5947 50.8878C16.8845 50.6577 17.099 50.3551 17.2382 49.9801C17.3774 49.6051 17.447 49.1989 17.447 48.7614C17.447 48.3239 17.3774 47.9162 17.2382 47.5384C17.099 47.1605 16.8845 46.8551 16.5947 46.6222C16.305 46.3892 15.9356 46.2727 15.4868 46.2727C15.0379 46.2727 14.6686 46.3892 14.3788 46.6222C14.089 46.8551 13.8746 47.1605 13.7354 47.5384C13.5961 47.9162 13.5265 48.3239 13.5265 48.7614C13.5265 49.1989 13.5961 49.6051 13.7354 49.9801C13.8746 50.3551 14.089 50.6577 14.3788 50.8878C14.6686 51.1179 15.0379 51.233 15.4868 51.233ZM19.9878 52V45.4545H20.9594V46.4773H21.0447C21.181 46.1278 21.4012 45.8565 21.7052 45.6634C22.0091 45.4673 22.3742 45.3693 22.8003 45.3693C23.2322 45.3693 23.5915 45.4673 23.8785 45.6634C24.1682 45.8565 24.3941 46.1278 24.556 46.4773H24.6242C24.7918 46.1392 25.0432 45.8707 25.3785 45.6719C25.7137 45.4702 26.1157 45.3693 26.5844 45.3693C27.1697 45.3693 27.6483 45.5526 28.0205 45.919C28.3927 46.2827 28.5787 46.8494 28.5787 47.6193V52H27.5731V47.6193C27.5731 47.1364 27.441 46.7912 27.1768 46.5838C26.9126 46.3764 26.6015 46.2727 26.2435 46.2727C25.7833 46.2727 25.4268 46.4119 25.1739 46.6903C24.9211 46.9659 24.7947 47.3153 24.7947 47.7386V52H23.7719V47.517C23.7719 47.1449 23.6512 46.8452 23.4097 46.6179C23.1682 46.3878 22.8572 46.2727 22.4765 46.2727C22.2151 46.2727 21.9708 46.3423 21.7435 46.4815C21.5191 46.6207 21.3373 46.8139 21.1981 47.0611C21.0617 47.3054 20.9935 47.5881 20.9935 47.9091V52H19.9878ZM33.1618 52.1364C32.5312 52.1364 31.9871 51.9972 31.5297 51.7188C31.0752 51.4375 30.7243 51.0455 30.4772 50.5426C30.2329 50.0369 30.1107 49.4489 30.1107 48.7784C30.1107 48.108 30.2329 47.517 30.4772 47.0057C30.7243 46.4915 31.0681 46.0909 31.5084 45.804C31.9516 45.5142 32.4687 45.3693 33.0596 45.3693C33.4005 45.3693 33.7371 45.4261 34.0695 45.5398C34.4019 45.6534 34.7045 45.8381 34.9772 46.0938C35.2499 46.3466 35.4672 46.6818 35.6292 47.0994C35.7911 47.517 35.8721 48.0312 35.8721 48.642V49.0682H30.8266V48.1989H34.8493C34.8493 47.8295 34.7755 47.5 34.6278 47.2102C34.4829 46.9205 34.2755 46.6918 34.0056 46.5241C33.7385 46.3565 33.4232 46.2727 33.0596 46.2727C32.659 46.2727 32.3124 46.3722 32.0198 46.571C31.73 46.767 31.507 47.0227 31.3508 47.3381C31.1945 47.6534 31.1164 47.9915 31.1164 48.3523V48.9318C31.1164 49.4261 31.2016 49.8452 31.3721 50.1889C31.5454 50.5298 31.7854 50.7898 32.0922 50.9688C32.3991 51.1449 32.7556 51.233 33.1618 51.233C33.426 51.233 33.6647 51.196 33.8778 51.1222C34.0937 51.0455 34.2797 50.9318 34.436 50.7812C34.5922 50.6278 34.713 50.4375 34.7982 50.2102L35.7698 50.483C35.6675 50.8125 35.4956 51.1023 35.2542 51.3523C35.0127 51.5994 34.7144 51.7926 34.3593 51.9318C34.0042 52.0682 33.605 52.1364 33.1618 52.1364Z" fill="#008FBF"/>
<path d="M37.2764 19.7267L22.0586 4.64072L21.0386 3.629C20.8062 3.40001 20.4919 3.27148 20.1643 3.27148C19.8367 3.27148 19.5224 3.40001 19.2899 3.629L3.0521 19.7267C2.81395 19.9619 2.62574 20.2422 2.49857 20.5508C2.3714 20.8594 2.30786 21.1902 2.31169 21.5235C2.32744 22.8985 3.48138 23.9962 4.86768 23.9962H6.54148V36.7188H33.787V23.9962H35.4963C36.1697 23.9962 36.8038 23.7345 37.2804 23.2618C37.515 23.0298 37.7009 22.754 37.8273 22.4502C37.9537 22.1465 38.0182 21.8209 38.0168 21.4923C38.0168 20.8282 37.753 20.1993 37.2764 19.7267V19.7267ZM22.3697 33.9063H17.9588V25.9376H22.3697V33.9063ZM30.9514 21.1837V33.9063H24.8903V25.0001C24.8903 24.1368 24.1853 23.4376 23.3149 23.4376H17.0136C16.1432 23.4376 15.4382 24.1368 15.4382 25.0001V33.9063H9.3771V21.1837H5.59628L20.1682 6.74229L21.078 7.64463L34.7362 21.1837H30.9514Z" fill="#008FBF"/>
</svg>
