<svg width="41" height="55" viewBox="0 0 41 55" fill="none" xmlns="http://www.w3.org/2000/svg">
<path d="M2.73602 52V43.2727H5.68488C6.36954 43.2727 6.9292 43.3963 7.36386 43.6435C7.80136 43.8878 8.12522 44.2188 8.33545 44.6364C8.54568 45.054 8.65079 45.5199 8.65079 46.0341C8.65079 46.5483 8.54568 47.0156 8.33545 47.4361C8.12806 47.8565 7.80704 48.1918 7.37238 48.4418C6.93772 48.6889 6.3809 48.8125 5.70193 48.8125H3.58829V47.875H5.66784C6.13659 47.875 6.51301 47.794 6.7971 47.6321C7.08119 47.4702 7.28715 47.2514 7.41499 46.9759C7.54568 46.6974 7.61102 46.3835 7.61102 46.0341C7.61102 45.6847 7.54568 45.3722 7.41499 45.0966C7.28715 44.821 7.07977 44.6051 6.79284 44.4489C6.5059 44.2898 6.12522 44.2102 5.65079 44.2102H3.79284V52H2.73602ZM10.2168 52V45.4545H11.1884V46.4432H11.2566C11.3759 46.1193 11.5918 45.8565 11.9043 45.6548C12.2168 45.4531 12.5691 45.3523 12.9612 45.3523C13.035 45.3523 13.1274 45.3537 13.2381 45.3565C13.3489 45.3594 13.4328 45.3636 13.4896 45.3693V46.392C13.4555 46.3835 13.3774 46.3707 13.2552 46.3537C13.1359 46.3338 13.0095 46.3239 12.8759 46.3239C12.5578 46.3239 12.2737 46.3906 12.0237 46.5241C11.7765 46.6548 11.5805 46.8366 11.4356 47.0696C11.2935 47.2997 11.2225 47.5625 11.2225 47.858V52H10.2168ZM17.1416 52.1364C16.5506 52.1364 16.0322 51.9957 15.5862 51.7145C15.143 51.4332 14.7964 51.0398 14.5464 50.5341C14.2992 50.0284 14.1756 49.4375 14.1756 48.7614C14.1756 48.0795 14.2992 47.4844 14.5464 46.9759C14.7964 46.4673 15.143 46.0724 15.5862 45.7912C16.0322 45.5099 16.5506 45.3693 17.1416 45.3693C17.7325 45.3693 18.2495 45.5099 18.6927 45.7912C19.1387 46.0724 19.4853 46.4673 19.7325 46.9759C19.9825 47.4844 20.1075 48.0795 20.1075 48.7614C20.1075 49.4375 19.9825 50.0284 19.7325 50.5341C19.4853 51.0398 19.1387 51.4332 18.6927 51.7145C18.2495 51.9957 17.7325 52.1364 17.1416 52.1364ZM17.1416 51.233C17.5904 51.233 17.9597 51.1179 18.2495 50.8878C18.5393 50.6577 18.7538 50.3551 18.893 49.9801C19.0322 49.6051 19.1018 49.1989 19.1018 48.7614C19.1018 48.3239 19.0322 47.9162 18.893 47.5384C18.7538 47.1605 18.5393 46.8551 18.2495 46.6222C17.9597 46.3892 17.5904 46.2727 17.1416 46.2727C16.6927 46.2727 16.3234 46.3892 16.0336 46.6222C15.7438 46.8551 15.5293 47.1605 15.3901 47.5384C15.2509 47.9162 15.1813 48.3239 15.1813 48.7614C15.1813 49.1989 15.2509 49.6051 15.3901 49.9801C15.5293 50.3551 15.7438 50.6577 16.0336 50.8878C16.3234 51.1179 16.6927 51.233 17.1416 51.233ZM24.5574 45.4545V46.3068H21.029V45.4545H24.5574ZM22.0858 52V44.5511C22.0858 44.1761 22.1739 43.8636 22.35 43.6136C22.5261 43.3636 22.7548 43.1761 23.0361 43.0511C23.3173 42.9261 23.6142 42.8636 23.9267 42.8636C24.1739 42.8636 24.3756 42.8835 24.5318 42.9233C24.6881 42.9631 24.8046 43 24.8813 43.0341L24.5915 43.9034C24.5403 43.8864 24.4693 43.8651 24.3784 43.8395C24.2903 43.8139 24.1739 43.8011 24.029 43.8011C23.6966 43.8011 23.4565 43.8849 23.3088 44.0526C23.1639 44.2202 23.0915 44.4659 23.0915 44.7898V52H22.0858ZM25.9668 52V45.4545H26.9725V52H25.9668ZM26.4782 44.3636C26.2822 44.3636 26.1131 44.2969 25.9711 44.1634C25.8319 44.0298 25.7623 43.8693 25.7623 43.6818C25.7623 43.4943 25.8319 43.3338 25.9711 43.2003C26.1131 43.0668 26.2822 43 26.4782 43C26.6742 43 26.8418 43.0668 26.981 43.2003C27.1231 43.3338 27.1941 43.4943 27.1941 43.6818C27.1941 43.8693 27.1231 44.0298 26.981 44.1634C26.8418 44.2969 26.6742 44.3636 26.4782 44.3636ZM29.8202 43.2727V52H28.8145V43.2727H29.8202ZM34.4065 52.1364C33.7758 52.1364 33.2318 51.9972 32.7744 51.7188C32.3198 51.4375 31.969 51.0455 31.7218 50.5426C31.4775 50.0369 31.3553 49.4489 31.3553 48.7784C31.3553 48.108 31.4775 47.517 31.7218 47.0057C31.969 46.4915 32.3127 46.0909 32.7531 45.804C33.1962 45.5142 33.7133 45.3693 34.3042 45.3693C34.6451 45.3693 34.9818 45.4261 35.3141 45.5398C35.6465 45.6534 35.9491 45.8381 36.2218 46.0938C36.4945 46.3466 36.7119 46.6818 36.8738 47.0994C37.0357 47.517 37.1167 48.0312 37.1167 48.642V49.0682H32.0712V48.1989H36.094C36.094 47.8295 36.0201 47.5 35.8724 47.2102C35.7275 46.9205 35.5201 46.6918 35.2502 46.5241C34.9832 46.3565 34.6678 46.2727 34.3042 46.2727C33.9036 46.2727 33.557 46.3722 33.2644 46.571C32.9747 46.767 32.7516 47.0227 32.5954 47.3381C32.4391 47.6534 32.361 47.9915 32.361 48.3523V48.9318C32.361 49.4261 32.4462 49.8452 32.6167 50.1889C32.79 50.5298 33.0301 50.7898 33.3369 50.9688C33.6437 51.1449 34.0002 51.233 34.4065 51.233C34.6707 51.233 34.9093 51.196 35.1224 51.1222C35.3383 51.0455 35.5244 50.9318 35.6806 50.7812C35.8369 50.6278 35.9576 50.4375 36.0428 50.2102L37.0144 50.483C36.9122 50.8125 36.7403 51.1023 36.4988 51.3523C36.2573 51.5994 35.959 51.7926 35.6039 51.9318C35.2488 52.0682 34.8497 52.1364 34.4065 52.1364Z" fill="#C4C4C4"/>
<path d="M34.4816 29.8281C33.7386 28.0827 32.6605 26.4973 31.3073 25.1602C29.9581 23.8192 28.3599 22.75 26.6009 22.0117C26.5852 22.0039 26.5694 22 26.5537 21.9922C29.0073 20.2344 30.6023 17.3711 30.6023 14.1406C30.6023 8.78906 26.2307 4.45312 20.8352 4.45312C15.4396 4.45312 11.0681 8.78906 11.0681 14.1406C11.0681 17.3711 12.6631 20.2344 15.1167 21.9961C15.1009 22.0039 15.0852 22.0078 15.0694 22.0156C13.305 22.7539 11.7218 23.8125 10.3631 25.1641C9.01108 26.5022 7.93314 28.0874 7.18877 29.832C6.4575 31.5401 6.06312 33.3713 6.02695 35.2266C6.0259 35.2683 6.03328 35.3097 6.04864 35.3486C6.064 35.3874 6.08704 35.4228 6.1164 35.4526C6.14577 35.4825 6.18085 35.5062 6.2196 35.5224C6.25835 35.5386 6.29998 35.5469 6.34202 35.5469H8.70504C8.87832 35.5469 9.01617 35.4102 9.0201 35.2422C9.09887 32.2266 10.3198 29.4023 12.478 27.2617C14.711 25.0469 17.6766 23.8281 20.8352 23.8281C23.9937 23.8281 26.9593 25.0469 29.1924 27.2617C31.3506 29.4023 32.5715 32.2266 32.6502 35.2422C32.6542 35.4141 32.792 35.5469 32.9653 35.5469H35.3283C35.3704 35.5469 35.412 35.5386 35.4507 35.5224C35.4895 35.5062 35.5246 35.4825 35.5539 35.4526C35.5833 35.4228 35.6063 35.3874 35.6217 35.3486C35.6371 35.3097 35.6444 35.2683 35.6434 35.2266C35.604 33.3594 35.2141 31.543 34.4816 29.8281V29.8281ZM20.8352 20.8594C19.0275 20.8594 17.3261 20.1602 16.0461 18.8906C14.7662 17.6211 14.0612 15.9336 14.0612 14.1406C14.0612 12.3477 14.7662 10.6602 16.0461 9.39062C17.3261 8.12109 19.0275 7.42188 20.8352 7.42188C22.6429 7.42188 24.3442 8.12109 25.6242 9.39062C26.9042 10.6602 27.6091 12.3477 27.6091 14.1406C27.6091 15.9336 26.9042 17.6211 25.6242 18.8906C24.3442 20.1602 22.6429 20.8594 20.8352 20.8594Z" fill="#C4C4C4"/>
</svg>
