<svg width="47" height="54" viewBox="0 0 47 54" fill="none" xmlns="http://www.w3.org/2000/svg">
<path d="M38.0874 20.7693V7.78854C38.0874 7.09999 37.8218 6.43965 37.3491 5.95278C36.8764 5.46591 36.2353 5.19238 35.5668 5.19238H10.3614C9.69288 5.19238 9.05177 5.46591 8.57907 5.95278C8.10638 6.43965 7.84082 7.09999 7.84082 7.78854V33.7501C7.84082 34.4386 8.10638 35.0989 8.57907 35.5858C9.05177 36.0727 9.69288 36.3462 10.3614 36.3462H22.9641" stroke="#008FBF" stroke-width="2.08333" stroke-linecap="round" stroke-linejoin="round"/>
<path d="M29.6856 32.8846C32.4697 32.8846 34.7267 30.5599 34.7267 27.6923C34.7267 24.8247 32.4697 22.5 29.6856 22.5C26.9015 22.5 24.6445 24.8247 24.6445 27.6923C24.6445 30.5599 26.9015 32.8846 29.6856 32.8846Z" stroke="#008FBF" stroke-width="2.08333"/>
<path d="M33.8867 31.1543L38.0876 34.6158" stroke="#008FBF" stroke-width="2.08333" stroke-linecap="round" stroke-linejoin="round"/>
<path d="M14.5625 13.8467H31.3661" stroke="#008FBF" stroke-width="2.08333" stroke-linecap="round" stroke-linejoin="round"/>
<path d="M14.5625 20.7695H21.284" stroke="#008FBF" stroke-width="2.08333" stroke-linecap="round" stroke-linejoin="round"/>
<path d="M5.21502 50.4229V41.6956H6.27184V45.5819H10.9252V41.6956H11.9821V50.4229H10.9252V46.5194H6.27184V50.4229H5.21502ZM13.9615 50.4229V43.8774H14.9672V50.4229H13.9615ZM14.4728 42.7865C14.2768 42.7865 14.1078 42.7197 13.9657 42.5862C13.8265 42.4527 13.7569 42.2922 13.7569 42.1047C13.7569 41.9172 13.8265 41.7567 13.9657 41.6231C14.1078 41.4896 14.2768 41.4229 14.4728 41.4229C14.6689 41.4229 14.8365 41.4896 14.9757 41.6231C15.1177 41.7567 15.1887 41.9172 15.1887 42.1047C15.1887 42.2922 15.1177 42.4527 14.9757 42.5862C14.8365 42.7197 14.6689 42.7865 14.4728 42.7865ZM21.4455 45.3433L20.5421 45.599C20.4853 45.4484 20.4015 45.3021 20.2907 45.1601C20.1827 45.0152 20.035 44.8959 19.8475 44.8021C19.66 44.7084 19.4199 44.6615 19.1273 44.6615C18.7267 44.6615 18.3929 44.7538 18.1259 44.9385C17.8617 45.1203 17.7296 45.3518 17.7296 45.6331C17.7296 45.8831 17.8205 46.0805 18.0023 46.2254C18.1841 46.3703 18.4682 46.491 18.8546 46.5876L19.8262 46.8263C20.4114 46.9683 20.8475 47.1856 21.1344 47.4782C21.4213 47.768 21.5648 48.1416 21.5648 48.599C21.5648 48.974 21.4569 49.3092 21.2409 49.6047C21.0279 49.9001 20.7296 50.1331 20.3461 50.3035C19.9625 50.474 19.5165 50.5592 19.008 50.5592C18.3404 50.5592 17.7878 50.4143 17.3503 50.1246C16.9128 49.8348 16.6358 49.4115 16.5194 48.8547L17.4739 48.616C17.5648 48.9683 17.7367 49.2325 17.9895 49.4086C18.2452 49.5848 18.579 49.6729 18.9909 49.6729C19.4597 49.6729 19.8319 49.5734 20.1074 49.3746C20.3858 49.1729 20.525 48.9314 20.525 48.6501C20.525 48.4229 20.4455 48.2325 20.2864 48.0791C20.1273 47.9229 19.883 47.8064 19.5534 47.7297L18.4625 47.474C17.8631 47.3319 17.4228 47.1118 17.1415 46.8135C16.8631 46.5123 16.7239 46.1359 16.7239 45.6842C16.7239 45.3149 16.8276 44.9882 17.035 44.7041C17.2452 44.42 17.5307 44.197 17.8915 44.0351C18.2551 43.8731 18.6671 43.7922 19.1273 43.7922C19.775 43.7922 20.2836 43.9342 20.6529 44.2183C21.025 44.5024 21.2892 44.8774 21.4455 45.3433ZM25.9252 43.8774V44.7297H22.5332V43.8774H25.9252ZM23.5218 42.3092H24.5275V48.5479C24.5275 48.8319 24.5687 49.045 24.6511 49.1871C24.7363 49.3263 24.8443 49.42 24.975 49.4683C25.1085 49.5138 25.2491 49.5365 25.3968 49.5365C25.5076 49.5365 25.5985 49.5308 25.6696 49.5194C25.7406 49.5052 25.7974 49.4939 25.84 49.4854L26.0446 50.3888C25.9764 50.4143 25.8812 50.4399 25.7591 50.4655C25.6369 50.4939 25.4821 50.5081 25.2946 50.5081C25.0105 50.5081 24.7321 50.447 24.4593 50.3248C24.1895 50.2027 23.965 50.0166 23.786 49.7666C23.6099 49.5166 23.5218 49.2013 23.5218 48.8206V42.3092ZM30.0268 50.5592C29.4359 50.5592 28.9174 50.4186 28.4714 50.1373C28.0282 49.8561 27.6816 49.4626 27.4316 48.9569C27.1845 48.4513 27.0609 47.8604 27.0609 47.1842C27.0609 46.5024 27.1845 45.9072 27.4316 45.3987C27.6816 44.8902 28.0282 44.4953 28.4714 44.214C28.9174 43.9328 29.4359 43.7922 30.0268 43.7922C30.6177 43.7922 31.1348 43.9328 31.5779 44.214C32.024 44.4953 32.3706 44.8902 32.6177 45.3987C32.8677 45.9072 32.9927 46.5024 32.9927 47.1842C32.9927 47.8604 32.8677 48.4513 32.6177 48.9569C32.3706 49.4626 32.024 49.8561 31.5779 50.1373C31.1348 50.4186 30.6177 50.5592 30.0268 50.5592ZM30.0268 49.6558C30.4757 49.6558 30.845 49.5407 31.1348 49.3106C31.4245 49.0805 31.639 48.778 31.7782 48.403C31.9174 48.028 31.987 47.6217 31.987 47.1842C31.987 46.7467 31.9174 46.339 31.7782 45.9612C31.639 45.5834 31.4245 45.278 31.1348 45.045C30.845 44.8121 30.4757 44.6956 30.0268 44.6956C29.5779 44.6956 29.2086 44.8121 28.9189 45.045C28.6291 45.278 28.4146 45.5834 28.2754 45.9612C28.1362 46.339 28.0666 46.7467 28.0666 47.1842C28.0666 47.6217 28.1362 48.028 28.2754 48.403C28.4146 48.778 28.6291 49.0805 28.9189 49.3106C29.2086 49.5407 29.5779 49.6558 30.0268 49.6558ZM34.5279 50.4229V43.8774H35.4995V44.866H35.5676C35.687 44.5422 35.9029 44.2794 36.2154 44.0777C36.5279 43.876 36.8801 43.7751 37.2722 43.7751C37.3461 43.7751 37.4384 43.7765 37.5492 43.7794C37.66 43.7822 37.7438 43.7865 37.8006 43.7922V44.8149C37.7665 44.8064 37.6884 44.7936 37.5662 44.7765C37.4469 44.7567 37.3205 44.7467 37.187 44.7467C36.8688 44.7467 36.5847 44.8135 36.3347 44.947C36.0875 45.0777 35.8915 45.2595 35.7466 45.4925C35.6046 45.7226 35.5336 45.9854 35.5336 46.2808V50.4229H34.5279ZM39.8397 52.8774C39.6692 52.8774 39.5172 52.8632 39.3837 52.8348C39.2502 52.8092 39.1578 52.7836 39.1067 52.7581L39.3624 51.8717C39.6067 51.9342 39.8226 51.9569 40.0101 51.9399C40.1976 51.9229 40.3638 51.839 40.5087 51.6885C40.6564 51.5407 40.7914 51.3007 40.9135 50.9683L41.101 50.4569L38.6806 43.8774H39.7715L41.5783 49.0933H41.6465L43.4533 43.8774H44.5442L41.7658 51.3774C41.6408 51.7155 41.486 51.9953 41.3013 52.2169C41.1167 52.4413 40.9022 52.6075 40.6578 52.7155C40.4164 52.8234 40.1436 52.8774 39.8397 52.8774Z" fill="#008FBF"/>
</svg>
