<svg width="54" height="49" viewBox="0 0 54 49" fill="none" xmlns="http://www.w3.org/2000/svg">
<path fill-rule="evenodd" clip-rule="evenodd" d="M43.6339 12.1387C43.3995 12.4341 43.0815 12.6 42.75 12.6C42.087 12.6 41.4511 12.9319 40.9822 13.5226C40.5134 14.1134 40.25 14.9146 40.25 15.75C40.25 16.5854 40.5134 17.3866 40.9822 17.9774C41.4511 18.5681 42.087 18.9 42.75 18.9C43.0815 18.9 43.3995 19.0659 43.6339 19.3613C43.8683 19.6567 44 20.0573 44 20.475V28.35C44 29.1854 43.7366 29.9866 43.2678 30.5774C42.7989 31.1681 42.163 31.5 41.5 31.5H11.5C10.837 31.5 10.2011 31.1681 9.73223 30.5774C9.26339 29.9866 9 29.1854 9 28.35V20.475C9 20.0573 9.1317 19.6567 9.36612 19.3613C9.60054 19.0659 9.91848 18.9 10.25 18.9C10.913 18.9 11.5489 18.5681 12.0178 17.9774C12.4866 17.3866 12.75 16.5854 12.75 15.75C12.75 14.9146 12.4866 14.1134 12.0178 13.5226C11.5489 12.9319 10.913 12.6 10.25 12.6C9.91848 12.6 9.60054 12.4341 9.36612 12.1387C9.1317 11.8433 9 11.4427 9 11.025V3.15C9 2.31457 9.26339 1.51335 9.73223 0.922614C10.2011 0.331875 10.837 0 11.5 0H41.5C42.163 0 42.7989 0.331875 43.2678 0.922614C43.7366 1.51335 44 2.31457 44 3.15V11.025C44 11.4427 43.8683 11.8433 43.6339 12.1387ZM41.5 28.35V21.8453C40.43 21.4929 39.4829 20.7035 38.807 19.6006C38.131 18.4976 37.7644 17.1435 37.7644 15.75C37.7644 14.3565 38.131 13.0024 38.807 11.8994C39.4829 10.7965 40.43 10.0071 41.5 9.65475V3.15H32.75V7.875H30.25V3.15H11.5V9.65475C12.57 10.0071 13.5171 10.7965 14.193 11.8994C14.869 13.0024 15.2356 14.3565 15.2356 15.75C15.2356 17.1435 14.869 18.4976 14.193 19.6006C13.5171 20.7035 12.57 21.4929 11.5 21.8453V28.35H30.25V23.625H32.75V28.35H41.5ZM32.75 11.025H30.25V20.475H32.75V11.025Z" fill="#C4C4C4"/>
<path d="M1.41477 38.2727L4.00568 45.6193H4.10795L6.69886 38.2727H7.80682L4.60227 47H3.51136L0.306818 38.2727H1.41477ZM11.0795 47.1364C10.4886 47.1364 9.97017 46.9957 9.52415 46.7145C9.08097 46.4332 8.73438 46.0398 8.48438 45.5341C8.23722 45.0284 8.11364 44.4375 8.11364 43.7614C8.11364 43.0795 8.23722 42.4844 8.48438 41.9759C8.73438 41.4673 9.08097 41.0724 9.52415 40.7912C9.97017 40.5099 10.4886 40.3693 11.0795 40.3693C11.6705 40.3693 12.1875 40.5099 12.6307 40.7912C13.0767 41.0724 13.4233 41.4673 13.6705 41.9759C13.9205 42.4844 14.0455 43.0795 14.0455 43.7614C14.0455 44.4375 13.9205 45.0284 13.6705 45.5341C13.4233 46.0398 13.0767 46.4332 12.6307 46.7145C12.1875 46.9957 11.6705 47.1364 11.0795 47.1364ZM11.0795 46.233C11.5284 46.233 11.8977 46.1179 12.1875 45.8878C12.4773 45.6577 12.6918 45.3551 12.831 44.9801C12.9702 44.6051 13.0398 44.1989 13.0398 43.7614C13.0398 43.3239 12.9702 42.9162 12.831 42.5384C12.6918 42.1605 12.4773 41.8551 12.1875 41.6222C11.8977 41.3892 11.5284 41.2727 11.0795 41.2727C10.6307 41.2727 10.2614 41.3892 9.97159 41.6222C9.68182 41.8551 9.46733 42.1605 9.32812 42.5384C9.18892 42.9162 9.11932 43.3239 9.11932 43.7614C9.11932 44.1989 9.18892 44.6051 9.32812 44.9801C9.46733 45.3551 9.68182 45.6577 9.97159 45.8878C10.2614 46.1179 10.6307 46.233 11.0795 46.233ZM19.7056 44.3239V40.4545H20.7113V47H19.7056V45.892H19.6374C19.484 46.2244 19.2454 46.5071 18.9215 46.7401C18.5977 46.9702 18.1886 47.0852 17.6942 47.0852C17.2852 47.0852 16.9215 46.9957 16.6033 46.8168C16.2852 46.6349 16.0352 46.3622 15.8533 45.9986C15.6715 45.6321 15.5806 45.1705 15.5806 44.6136V40.4545H16.5863V44.5455C16.5863 45.0227 16.7198 45.4034 16.9869 45.6875C17.2567 45.9716 17.6005 46.1136 18.0181 46.1136C18.2681 46.1136 18.5224 46.0497 18.7809 45.9219C19.0423 45.794 19.261 45.598 19.4371 45.3338C19.6161 45.0696 19.7056 44.733 19.7056 44.3239ZM25.2124 47.1364C24.5987 47.1364 24.0703 46.9915 23.6271 46.7017C23.1839 46.4119 22.843 46.0128 22.6044 45.5043C22.3658 44.9957 22.2464 44.4148 22.2464 43.7614C22.2464 43.0966 22.3686 42.5099 22.6129 42.0014C22.8601 41.4901 23.2038 41.0909 23.6442 40.804C24.0874 40.5142 24.6044 40.3693 25.1953 40.3693C25.6555 40.3693 26.0703 40.4545 26.4396 40.625C26.8089 40.7955 27.1115 41.0341 27.3473 41.3409C27.5831 41.6477 27.7294 42.0057 27.7862 42.4148H26.7805C26.7038 42.1165 26.5334 41.8523 26.2692 41.6222C26.0078 41.3892 25.6555 41.2727 25.2124 41.2727C24.8203 41.2727 24.4766 41.375 24.1811 41.5795C23.8885 41.7812 23.6598 42.0668 23.495 42.4361C23.3331 42.8026 23.2521 43.233 23.2521 43.7273C23.2521 44.233 23.3317 44.6733 23.4908 45.0483C23.6527 45.4233 23.88 45.7145 24.1726 45.9219C24.468 46.1293 24.8146 46.233 25.2124 46.233C25.4737 46.233 25.7109 46.1875 25.924 46.0966C26.1371 46.0057 26.3175 45.875 26.4652 45.7045C26.6129 45.5341 26.718 45.3295 26.7805 45.0909H27.7862C27.7294 45.4773 27.5888 45.8253 27.3643 46.1349C27.1428 46.4418 26.8487 46.6861 26.4822 46.8679C26.1186 47.0469 25.6953 47.1364 25.2124 47.1364ZM30.2621 43.0625V47H29.2564V38.2727H30.2621V41.4773H30.3473C30.5007 41.1392 30.7308 40.8707 31.0376 40.6719C31.3473 40.4702 31.7592 40.3693 32.2734 40.3693C32.7195 40.3693 33.1101 40.4588 33.4453 40.6378C33.7805 40.8139 34.0405 41.0852 34.2251 41.4517C34.4126 41.8153 34.5064 42.2784 34.5064 42.8409V47H33.5007V42.9091C33.5007 42.3892 33.3658 41.9872 33.0959 41.7031C32.8288 41.4162 32.4581 41.2727 31.9837 41.2727C31.6541 41.2727 31.3587 41.3423 31.0973 41.4815C30.8388 41.6207 30.6342 41.8239 30.4837 42.0909C30.3359 42.358 30.2621 42.6818 30.2621 43.0625ZM39.0906 47.1364C38.4599 47.1364 37.9158 46.9972 37.4585 46.7188C37.0039 46.4375 36.6531 46.0455 36.4059 45.5426C36.1616 45.0369 36.0394 44.4489 36.0394 43.7784C36.0394 43.108 36.1616 42.517 36.4059 42.0057C36.6531 41.4915 36.9968 41.0909 37.4371 40.804C37.8803 40.5142 38.3974 40.3693 38.9883 40.3693C39.3292 40.3693 39.6658 40.4261 39.9982 40.5398C40.3306 40.6534 40.6332 40.8381 40.9059 41.0938C41.1786 41.3466 41.396 41.6818 41.5579 42.0994C41.7198 42.517 41.8008 43.0312 41.8008 43.642V44.0682H36.7553V43.1989H40.7781C40.7781 42.8295 40.7042 42.5 40.5565 42.2102C40.4116 41.9205 40.2042 41.6918 39.9343 41.5241C39.6673 41.3565 39.3519 41.2727 38.9883 41.2727C38.5877 41.2727 38.2411 41.3722 37.9485 41.571C37.6587 41.767 37.4357 42.0227 37.2795 42.3381C37.1232 42.6534 37.0451 42.9915 37.0451 43.3523V43.9318C37.0451 44.4261 37.1303 44.8452 37.3008 45.1889C37.4741 45.5298 37.7141 45.7898 38.021 45.9688C38.3278 46.1449 38.6843 46.233 39.0906 46.233C39.3548 46.233 39.5934 46.196 39.8065 46.1222C40.0224 46.0455 40.2085 45.9318 40.3647 45.7812C40.521 45.6278 40.6417 45.4375 40.7269 45.2102L41.6985 45.483C41.5962 45.8125 41.4244 46.1023 41.1829 46.3523C40.9414 46.5994 40.6431 46.7926 40.288 46.9318C39.9329 47.0682 39.5337 47.1364 39.0906 47.1364ZM43.3306 47V40.4545H44.3022V41.4432H44.3704C44.4897 41.1193 44.7056 40.8565 45.0181 40.6548C45.3306 40.4531 45.6829 40.3523 46.0749 40.3523C46.1488 40.3523 46.2411 40.3537 46.3519 40.3565C46.4627 40.3594 46.5465 40.3636 46.6033 40.3693V41.392C46.5692 41.3835 46.4911 41.3707 46.369 41.3537C46.2496 41.3338 46.1232 41.3239 45.9897 41.3239C45.6715 41.3239 45.3874 41.3906 45.1374 41.5241C44.8903 41.6548 44.6942 41.8366 44.5494 42.0696C44.4073 42.2997 44.3363 42.5625 44.3363 42.858V47H43.3306ZM52.4318 41.9205L51.5284 42.1761C51.4716 42.0256 51.3878 41.8793 51.277 41.7372C51.169 41.5923 51.0213 41.473 50.8338 41.3793C50.6463 41.2855 50.4062 41.2386 50.1136 41.2386C49.7131 41.2386 49.3793 41.331 49.1122 41.5156C48.848 41.6974 48.7159 41.929 48.7159 42.2102C48.7159 42.4602 48.8068 42.6577 48.9886 42.8026C49.1705 42.9474 49.4545 43.0682 49.8409 43.1648L50.8125 43.4034C51.3977 43.5455 51.8338 43.7628 52.1207 44.0554C52.4077 44.3452 52.5511 44.7187 52.5511 45.1761C52.5511 45.5511 52.4432 45.8864 52.2273 46.1818C52.0142 46.4773 51.7159 46.7102 51.3324 46.8807C50.9489 47.0511 50.5028 47.1364 49.9943 47.1364C49.3267 47.1364 48.7741 46.9915 48.3366 46.7017C47.8991 46.4119 47.6222 45.9886 47.5057 45.4318L48.4602 45.1932C48.5511 45.5455 48.723 45.8097 48.9759 45.9858C49.2315 46.1619 49.5653 46.25 49.9773 46.25C50.446 46.25 50.8182 46.1506 51.0938 45.9517C51.3722 45.75 51.5114 45.5085 51.5114 45.2273C51.5114 45 51.4318 44.8097 51.2727 44.6562C51.1136 44.5 50.8693 44.3835 50.5398 44.3068L49.4489 44.0511C48.8494 43.9091 48.4091 43.6889 48.1278 43.3906C47.8494 43.0895 47.7102 42.7131 47.7102 42.2614C47.7102 41.892 47.8139 41.5653 48.0213 41.2812C48.2315 40.9972 48.517 40.7741 48.8778 40.6122C49.2415 40.4503 49.6534 40.3693 50.1136 40.3693C50.7614 40.3693 51.2699 40.5114 51.6392 40.7955C52.0114 41.0795 52.2756 41.4545 52.4318 41.9205Z" fill="#C4C4C4"/>
</svg>
